{
  "accessors": [
    {
      "bufferView": 1,
      "componentType": 5126,
      "count": 230,
      "max": [
        1,
        1,
        0.96767771244049072
      ],
      "min": [
        -1,
        -1,
        -1
      ],
      "type": "VEC3"
    },
    {
      "bufferView": 1,
      "byteOffset": 2760,
      "componentType": 5126,
      "count": 230,
      "max": [
        1,
        1,
        0.510825514793396
      ],
      "min": [
        -1,
        -1,
        -1
      ],
      "type": "VEC3"
    },
    {
      "bufferView": 0,
      "componentType": 5125,
      "count": 888,
      "max": [
        229
      ],
      "min": [
        0
      ],
      "type": "SCALAR"
    },
    {
      "bufferView": 1,
      "byteOffset": 5520,
      "componentType": 5126,
      "count": 225,
      "max": [
        1,
        1,
        1
      ],
      "min": [
        -0.96767771244049072,
        -1,
        -1
      ],
      "type": "VEC3"
    },
    {
      "bufferView": 1,
      "byteOffset": 8220,
      "componentType": 5126,
      "count": 225,
      "max": [
        1,
        1,
        1
      ],
      "min": [
        -0.510825514793396,
        -1,
        -1
      ],
      "type": "VEC3"
    },
    {
      "bufferView": 0,
      "byteOffset": 3552,
      "componentType": 5125,
      "count": 864,
      "max": [
        224
      ],
      "min": [
        0
      ],
      "type": "SCALAR"
    },
    {
      "bufferView": 1,
      "byteOffset": 10920,
      "componentType": 5126,
      "count": 225,
      "max": [
        1,
        1,
        1
      ],
      "min": [
        -1,
        -1,
        -1
      ],
      "type": "VEC3"
    },
    {
      "bufferView": 1,
      "byteOffset": 13620,
      "componentType": 5126,
      "count": 225,
      "max": [
        1,
        1,
        1
      ],
      "min": [
        -1,
        -1,
        -1
      ],
      "type": "VEC3"
    },
    {
      "bufferView": 0,
      "byteOffset": 7008,
      "componentType": 5125,
      "count": 864,
      "max": [
        224
      ],
      "min": [
        0
      ],
      "type": "SCALAR"
    },
    {
      "bufferView": 1,
      "byteOffset": 16320,
      "componentType": 5126,
      "count": 225,
      "max": [
        1,
        1,
        1
      ],
      "min": [
        -1,
        -1,
        -0.96767771244049072
      ],
      "type": "VEC3"
    },
    {
      "bufferView": 1,
      "byteOffset": 19020,
      "componentType": 5126,
      "count": 225,
      "max": [
        1,
        1,
        1
      ],
      "min": [
        -1,
        -1,
        -0.510825514793396
      ],
      "type": "VEC3"
    },
    {
      "bufferView": 0,
      "byteOffset": 10464,
      "componentType": 5125,
      "count": 864,
      "max": [
        224
      ],
      "min": [
        0
      ],
      "type": "SCALAR"
    },
    {
      "bufferView": 1,
      "byteOffset": 21720,
      "componentType": 5126,
      "count": 225,
      "max": [
        1,
        1,
        1
      ],
      "min": [
        -1,
        -1,
        -1
      ],
      "type": "VEC3"
    },
    {
      "bufferView": 1,
      "byteOffset": 24420,
      "componentType": 5126,
      "count": 225,
      "max": [
        1,
        1,
        1
      ],
      "min": [
        -1,
        -1,
        -1
      ],
      "type": "VEC3"
    },
    {
      "bufferView": 0,
      "byteOffset": 13920,
      "componentType": 5125,
      "count": 864,
      "max": [
        224
      ],
      "min": [
        0
      ],
      "type": "SCALAR"
    },
    {
      "bufferView": 1,
      "byteOffset": 27120,
      "componentType": 5126,
      "count": 225,
      "max": [
        1,
        0.96767771244049072,
        1
      ],
      "min": [
        -1,
        -1,
        -1
      ],
      "type": "VEC3"
    },
    {
      "bufferView": 1,
      "byteOffset": 29820,
      "componentType": 5126,
      "count": 225,
      "max": [
        1,
        0.510825514793396,
        1
      ],
      "min": [
        -1,
        -1,
        -1
      ],
      "type": "VEC3"
    },
    {
      "bufferView": 0,
      "byteOffset": 17376,
      "componentType": 5125,
      "count": 864,
      "max": [
        224
      ],
      "min": [
        0
      ],
      "type": "SCALAR"
    },
    {
      "bufferView": 1,
      "byteOffset": 32520,
      "componentType": 5126,
      "count": 1457,
      "max": [
        0.99267768859863281,
        0.99267768859863281,
        0.99267768859863281
      ],
      "min": [
        -0.99267768859863281,
        -0.99267768859863281,
        -0.99267768859863281
      ],
      "type": "VEC3"
    },
    {
      "bufferView": 1,
      "byteOffset": 50004,
      "componentType": 5126,
      "count": 1457,
      "max": [
        0.99998891353607178,
        0.99998891353607178,
        0.99998903274536133
      ],
      "min": [
        -0.99998891353607178,
        -0.99998891353607178,
        -0.99998903274536133
      ],
      "type": "VEC3"
    },
    {
      "bufferView": 0,
      "byteOffset": 20832,
      "componentType": 5125,
      "count": 6456,
      "max": [
        1456
      ],
      "min": [
        0
      ],
      "type": "SCALAR"
    }
  ],
  "asset": {
    "generator": "Sketchfab (OSG glTF plugin)",
    "version": "2.0"
  },
  "bufferViews": [
    {
      "buffer": 0,
      "byteLength": 46656,
      "byteOffset": 0,
      "name": "ScalarBufferView",
      "target": 34963
    },
    {
      "buffer": 0,
      "byteLength": 67488,
      "byteOffset": 46656,
      "byteStride": 12,
      "name": "Vec4BufferView",
      "target": 34962
    }
  ],
  "buffers": [
    {
      "byteLength": 114144,
      "uri": "scene.bin"
    }
  ],
  "extensionsRequired": [
    "KHR_materials_pbrSpecularGlossiness"
  ],
  "extensionsUsed": [
    "KHR_materials_pbrSpecularGlossiness"
  ],
  "materials": [
    {
      "doubleSided": true,
      "emissiveFactor": [
        0,
        0,
        0
      ],
      "extensions": {
        "KHR_materials_pbrSpecularGlossiness": {
          "diffuseFactor": [
            0.80000000000000004,
            0,
            0,
            1
          ],
          "glossinessFactor": 0.84999999999999998,
          "specularFactor": [
            0,
            0,
            0
          ]
        }
      },
      "name": "Red"
    },
    {
      "doubleSided": true,
      "emissiveFactor": [
        0,
        0,
        0
      ],
      "extensions": {
        "KHR_materials_pbrSpecularGlossiness": {
          "diffuseFactor": [
            0.80000000000000004,
            0.80000000000000004,
            0,
            1
          ],
          "glossinessFactor": 0.84999999999999998,
          "specularFactor": [
            0,
            0,
            0
          ]
        }
      },
      "name": "Yellow"
    },
    {
      "doubleSided": true,
      "emissiveFactor": [
        0,
        0,
        0
      ],
      "extensions": {
        "KHR_materials_pbrSpecularGlossiness": {
          "diffuseFactor": [
            0.029999999999999999,
            0.80000000000000004,
            0,
            1
          ],
          "glossinessFactor": 0.84999999999999998,
          "specularFactor": [
            0,
            0,
            0
          ]
        }
      },
      "name": "Green"
    },
    {
      "doubleSided": true,
      "emissiveFactor": [
        0,
        0,
        0
      ],
      "extensions": {
        "KHR_materials_pbrSpecularGlossiness": {
          "diffuseFactor": [
            0,
            0.029999999999999999,
            0.80000000000000004,
            1
          ],
          "glossinessFactor": 0.84999999999999998,
          "specularFactor": [
            0,
            0,
            0
          ]
        }
      },
      "name": "Blue"
    },
    {
      "doubleSided": true,
      "emissiveFactor": [
        0,
        0,
        0
      ],
      "extensions": {
        "KHR_materials_pbrSpecularGlossiness": {
          "diffuseFactor": [
            0.80000000000000004,
            0.20000000000000001,
            0.029999999999999999,
            1
          ],
          "glossinessFactor": 0.84999999999999998,
          "specularFactor": [
            0,
            0,
            0
          ]
        }
      },
      "name": "Orange"
    },
    {
      "doubleSided": true,
      "emissiveFactor": [
        0,
        0,
        0
      ],
      "extensions": {
        "KHR_materials_pbrSpecularGlossiness": {
          "diffuseFactor": [
            0.80000000000000004,
            0.80000000000000004,
            0.80000000000000004,
            1
          ],
          "glossinessFactor": 0.84999999999999998,
          "specularFactor": [
            0,
            0,
            0
          ]
        }
      },
      "name": "White"
    },
    {
      "doubleSided": true,
      "emissiveFactor": [
        0,
        0,
        0
      ],
      "extensions": {
        "KHR_materials_pbrSpecularGlossiness": {
          "diffuseFactor": [
            0.0050000000000000001,
            0.0050000000000000001,
            0.0050000000000000001,
            1
          ],
          "glossinessFactor": 0.90000000000000002,
          "specularFactor": [
            0,
            0,
            0
          ]
        }
      },
      "name": "Plastic"
    }
  ],
  "meshes": [
    {
      "name": "Cube",
      "primitives": [
        {
          "attributes": {
            "NORMAL": 1,
            "POSITION": 0
          },
          "indices": 2,
          "material": 0,
          "mode": 4
        },
        {
          "attributes": {
            "NORMAL": 4,
            "POSITION": 3
          },
          "indices": 5,
          "material": 1,
          "mode": 4
        },
        {
          "attributes": {
            "NORMAL": 7,
            "POSITION": 6
          },
          "indices": 8,
          "material": 2,
          "mode": 4
        },
        {
          "attributes": {
            "NORMAL": 10,
            "POSITION": 9
          },
          "indices": 11,
          "material": 3,
          "mode": 4
        },
        {
          "attributes": {
            "NORMAL": 13,
            "POSITION": 12
          },
          "indices": 14,
          "material": 4,
          "mode": 4
        },
        {
          "attributes": {
            "NORMAL": 16,
            "POSITION": 15
          },
          "indices": 17,
          "material": 5,
          "mode": 4
        },
        {
          "attributes": {
            "NORMAL": 19,
            "POSITION": 18
          },
          "indices": 20,
          "material": 6,
          "mode": 4
        }
      ]
    }
  ],
  "nodes": [
    {
      "children": [
        1
      ],
      "name": "RootNode (gltf orientation matrix)",
      "rotation": [
        -0.70710678118654746,
        -0,
        -0,
        0.70710678118654757
      ]
    },
    {
      "children": [
        2
      ],
      "name": "RootNode (model correction matrix)"
    },
    {
      "children": [
        3
      ],
      "matrix": [
        1,
        0,
        0,
        0,
        0,
        0,
        1,
        0,
        0,
        -1,
        0,
        0,
        0,
        0,
        0,
        1
      ],
      "name": "0b16dc9e3b294d1680f4e33d9ac573ad.fbx"
    },
    {
      "children": [
        4
      ],
      "name": "RootNode"
    },
    {
      "children": [
        5
      ],
      "matrix": [
        100,
        0,
        0,
        0,
        0,
        -4.3711390063094768e-06,
        -99.999999999999901,
        0,
        0,
        99.999999999999901,
        -4.3711390063094768e-06,
        0,
        0,
        0,
        0,
        1
      ],
      "name": "Cube"
    },
    {
      "mesh": 0,
      "name": "Cube"
    }
  ],
  "scene": 0,
  "scenes": [
    {
      "name": "OSG_Scene",
      "nodes": [
        0
      ]
    }
  ]
}

